<svg xmlns="http://www.w3.org/2000/svg" viewBox="0 0 750 500"><g id="freepik--Character--inject-2"><rect x="190.67" y="140.42" width="374.04" height="260.64" rx="11.63" style="fill:#263238"></rect><path d="M564.71,152.05s0-.27-.05-.81a9.81,9.81,0,0,0-.12-1,10.68,10.68,0,0,0-.31-1.37,11.58,11.58,0,0,0-8.91-8.17,17.91,17.91,0,0,0-3.64-.22h-8.42l-21,0-133.88.08-92.45,0-51.5,0H203.74a17.52,17.52,0,0,0-3.41.18,11,11,0,0,0-3.21,1.07,11.58,11.58,0,0,0-4.83,4.7,12.41,12.41,0,0,0-1.16,3.22,18,18,0,0,0-.22,3.46v21.34q0,14.35,0,29v59.86c0,40.67,0,82.76,0,125.88a11.34,11.34,0,0,0,9.26,11.2,20,20,0,0,0,4,.2H309.92l117.27,0,106.12,0h18.45a18.46,18.46,0,0,0,3-.13,11.32,11.32,0,0,0,9.63-9.69,21.58,21.58,0,0,0,.13-2.91v-8.74q0-23.14,0-44.36c0-56.52.06-102.26.08-133.87,0-15.81,0-28.08,0-36.4,0-4.16,0-7.33,0-9.47s0-3.22,0-3.22,0,1.09,0,3.22,0,5.31,0,9.47c0,8.32,0,20.59,0,36.4,0,31.61.05,77.35.09,133.87q0,21.19,0,44.36v5.81c0,1,0,1.95,0,2.93a21.08,21.08,0,0,1-.13,3,11.86,11.86,0,0,1-7,9.23,12.11,12.11,0,0,1-3,.83,20.77,20.77,0,0,1-3,.14H533.31l-106.12,0h-223a21.39,21.39,0,0,1-4.06-.21,11.89,11.89,0,0,1-9.68-11.72V263.51q0-30.49,0-59.86V153.29a18.47,18.47,0,0,1,.23-3.55,13.36,13.36,0,0,1,1.21-3.36,12.06,12.06,0,0,1,5-4.89,11,11,0,0,1,3.35-1.12,17.86,17.86,0,0,1,3.49-.19h92.18l92.45,0,133.88.08,21,0h8.42a19,19,0,0,1,3.67.23,12,12,0,0,1,3.12,1.11,11.85,11.85,0,0,1,4.11,3.59,11.63,11.63,0,0,1,1.7,3.58,8.92,8.92,0,0,1,.29,1.37,6,6,0,0,1,.11,1C564.71,151.78,564.71,152.05,564.71,152.05Z" style="fill:#263238"></path><path d="M545.91,260.74a10,10,0,1,1-10,10A10,10,0,0,1,545.91,260.74Z" style="fill:#455a64"></path><path d="M210.43,244v53.23a3.71,3.71,0,0,1-3.71,3.71h0a3.71,3.71,0,0,1-3.71-3.71V244a3.71,3.71,0,0,1,3.71-3.71h0A3.71,3.71,0,0,1,210.43,244Z" style="fill:#455a64"></path><rect x="217.35" y="148.86" width="312.37" height="244.2" style="fill:#fff"></rect><path d="M560.55,232.35c4.68-2.28,10-4.61,10-4.61l4.62-2.33a5.92,5.92,0,0,1,0,1,3.91,3.91,0,0,0,.25,1.93c.57,1.1,2.07,1.35,3.31,1.14a7.31,7.31,0,0,0,4.59-11.8,5.51,5.51,0,0,0-.26-2.11c-1.52-4.61-8.31-6.51-8.31-6.51l1.5-1s5.53-1.16,11.31,6.25a5.81,5.81,0,0,0,3.48,2.18,2.92,2.92,0,0,0,2.47-.49c1.76-1.45,1.19-3.07-2.36-7.75s-8.52-8-12.47-8a38.63,38.63,0,0,0-5.49.3s13-10.18,13.79-10.85c2.3-2,3.35-4.62,2.19-6.28-.75-1.06-2.48-1.85-5.23.35-2.38,1.9-29.28,18.29-29.28,18.29L543.22,210l-8.39,8.09,13.29,15,1.43.35A16.13,16.13,0,0,0,560.55,232.35Z" style="fill:#ffbf9d"></path><path d="M545.81,211.39c.72,1.64,2.82,2.23,4.61,2s3.43-1,5.2-1.41c5.27-1.06,10.78,2.13,16,.82.73-.18,1.56-.64,1.54-1.38s-.77-1.09-1.42-1.35l-16.48-6.7" style="fill:#ffbf9d"></path><path d="M555.25,203.37a6.8,6.8,0,0,1,1.86.54c1.17.41,2.85,1,4.92,1.83l7.25,2.83,2.09.83c.64.31,1.62.44,2.18,1.54a1.49,1.49,0,0,1-.4,1.62,3.16,3.16,0,0,1-1.28.69,11.47,11.47,0,0,1-2.6.36c-3.54.07-6.66-1-9.52-1.28a13.71,13.71,0,0,0-4,.06c-1.23.23-2.37.66-3.46,1A6.34,6.34,0,0,1,547,213c-1.1-.76-1.21-1.58-1.17-1.57a5.17,5.17,0,0,0,1.38,1.23,6.12,6.12,0,0,0,4.89,0c1-.32,2.16-.8,3.49-1.09a13.8,13.8,0,0,1,4.28-.16c3,.26,6.11,1.27,9.38,1.19a11.1,11.1,0,0,0,2.35-.31c.72-.2,1.23-.65,1-1s-.91-.72-1.62-1l-2.07-.86-7.17-3c-2-.88-3.68-1.6-4.8-2.13A7.22,7.22,0,0,1,555.25,203.37Z" style="fill:#ff9a6c"></path><path d="M574.58,209a7.35,7.35,0,0,1,3.17-1.13,5.62,5.62,0,0,1,3.43.93,14.36,14.36,0,0,1,3.3,3,23.17,23.17,0,0,0,3.24,3.37,7.64,7.64,0,0,0,3.53,1.61,3,3,0,0,0,2.49-.8c.43-.46.54-.79.51-.81s-.23.25-.68.62a2.77,2.77,0,0,1-2.26.53,7.44,7.44,0,0,1-3.21-1.62A25.18,25.18,0,0,1,585,211.4a14.29,14.29,0,0,0-3.49-3.15,6,6,0,0,0-3.79-.87,5.19,5.19,0,0,0-2.44.93C574.76,208.67,574.56,209,574.58,209Z" style="fill:#ff9a6c"></path><path d="M587.9,188.92a17.58,17.58,0,0,0-2.6,2l-6.12,5c-2.33,1.83-4.44,3.49-6.2,4.89a19,19,0,0,0-2.53,2.09,14.85,14.85,0,0,0,2.8-1.72c1.67-1.16,3.92-2.82,6.34-4.76s4.53-3.76,6-5.14A15,15,0,0,0,587.9,188.92Z" style="fill:#ff9a6c"></path><path d="M574,214.18a4.63,4.63,0,0,0,.89.51,3,3,0,0,1,1.69,1.89,1.61,1.61,0,0,1-.54,1.52,8.57,8.57,0,0,1-1.76,1.2,3.66,3.66,0,0,0-1.78,1.92,3.11,3.11,0,0,0,.56,2.76,3.53,3.53,0,0,0,2.5,1.3,4.45,4.45,0,0,0,2.56-.48,14.32,14.32,0,0,0,3.26-2.68,8.69,8.69,0,0,0,1.6-2.34,1.84,1.84,0,0,0,.2-1,10,10,0,0,0-.43.91,9.84,9.84,0,0,1-1.71,2.14,15.35,15.35,0,0,1-3.21,2.46,3.55,3.55,0,0,1-4.25-.69,2.46,2.46,0,0,1-.46-2.18,3.08,3.08,0,0,1,1.48-1.59,8.81,8.81,0,0,0,1.84-1.35,2.07,2.07,0,0,0,.59-2,3.19,3.19,0,0,0-2-2A2.62,2.62,0,0,0,574,214.18Z" style="fill:#ff9a6c"></path><path d="M575.79,224.76s-.35.12-.67.65A2.8,2.8,0,0,0,575,228a3.83,3.83,0,0,0,3.14,2.11,6.3,6.3,0,0,0,4.41-1.45,7.45,7.45,0,0,0,2.56-3.84,7.09,7.09,0,0,0,0-3.75,6.56,6.56,0,0,0-1.09-2.27c-.36-.48-.62-.69-.65-.66a11.75,11.75,0,0,1,1.29,3,7,7,0,0,1-.13,3.48,7.09,7.09,0,0,1-2.39,3.49,5.84,5.84,0,0,1-3.94,1.37,3.42,3.42,0,0,1-2.78-1.71,2.72,2.72,0,0,1-.07-2.23C575.57,225,575.83,224.8,575.79,224.76Z" style="fill:#ff9a6c"></path><path d="M560,222.82c.05,0-.23-.57-1-1.21a6.19,6.19,0,0,0-3.78-1.37l.22.53a18.94,18.94,0,0,0,1.49-1.66c2.72-3.38,3.42-6.92,3.25-6.92s-1.14,3.26-3.76,6.52c-.47.59-1,1.13-1.43,1.62l-.51.53h.73a6.53,6.53,0,0,1,3.56,1.06C559.58,222.44,560,222.87,560,222.82Z" style="fill:#ff9a6c"></path><path d="M582.19,205.57c-.16-.07-.68,1.16-.26,2.67s1.5,2.31,1.6,2.17-.62-1-1-2.34S582.38,205.62,582.19,205.57Z" style="fill:#ff9a6c"></path><path d="M442,394.17c-.89-45.23-4.94-137.15-4.94-137.15l-9.16-32s-10.17-1.31-18.12-2.19-17.19-2.72-17.19-2.72L386.8,211l-47.7-2.79-7.29,13.52S301.94,237.24,298,239.43s22,109.43,22,109.43l-5,45.31Z" style="fill:#10368E"></path><path d="M400.5,398.11c-.19-8.14-.6-17.84-1.15-28.6s-1.46-22.57-2.64-34.94-2.71-24.13-4.33-34.78-3.43-20.19-5.27-28.12q-.67-3-1.27-5.68c-.46-1.77-.89-3.45-1.29-5-.8-3.13-1.49-5.84-2.17-8s-1.12-3.82-1.47-5c-.15-.54-.26-1-.36-1.32a1.36,1.36,0,0,1-.09-.46,2.29,2.29,0,0,1,.18.43c.12.34.26.76.45,1.29.39,1.21.94,2.88,1.63,5s1.48,4.85,2.32,8q.65,2.36,1.37,5c.42,1.8.87,3.69,1.33,5.67,1.93,7.94,3.71,17.5,5.47,28.14s3.17,22.43,4.41,34.82,2,24.22,2.58,35,.85,20.48.95,28.63" style="fill:#263238"></path><path d="M424.76,276.84s60.86,20,73,17.43,35.78-31.84,41.8-39.3c6.83-8.46,14-19.3,14-19.3l-18.27-21.11-6.75,5.57s-35.8,34.63-39.45,34.63-37.84-17.63-37.84-17.63-16.66-11.19-23.59-12.23-9.57,10.79-9.57,10.79Z" style="fill:#10368E"></path><path d="M437.06,257a21.28,21.28,0,0,1,.29,3.09c.13,2,.27,4.87.41,8.44.29,7.12.53,17,.82,27.85s.65,20.71,1,27.83c.17,3.45.31,6.29.42,8.43a20.29,20.29,0,0,1,.06,3.1,18.79,18.79,0,0,1-.42-3.07c-.21-2-.45-4.86-.71-8.42-.52-7.12-1-17-1.27-27.85s-.43-20.73-.55-27.85c-.05-3.46-.09-6.3-.12-8.45A18.31,18.31,0,0,1,437.06,257Z" style="fill:#263238"></path><g style="opacity:0.30000000000000004"><path d="M435.39,334.57c-.35-2.83-2.61-5.15-5.23-6.33a23.14,23.14,0,0,0-8.43-1.56,148.6,148.6,0,0,0-103.1,35.47l-1.46,10.11c9.07,3.84,19.6,1.21,28.59-2.81s17.55-9.4,27.23-11.27c8.4-1.61,17.44-.53,25.19-4.11,4.88-2.26,8.9-6.25,14-7.9,4.58-1.48,9.58-.94,14.27-2S436,339.31,435.39,334.57Z"></path></g><path d="M298,239.43S281.28,253.64,279,264.85s-9.79,41.85-9.79,41.85-7.92,36.62-6.79,43.72,3.51,22.95,19,24.82,69.21-17.72,69.21-17.72l14.7-6-5.65-26.91L334.41,331l-24.72,2L313,310.59l5.48-14.38s-.3-15.67-6.33-28.75S298,239.43,298,239.43Z" style="fill:#10368E"></path><path d="M390.12,311.82l19.51-39.43a7.91,7.91,0,0,1,7.08-4.37h49a2.38,2.38,0,0,1,2.12,3.51L434.67,333a5.35,5.35,0,0,1-4.71,2.79H379.12Z" style="fill:#455a64"></path><path d="M467.53,271.82a4,4,0,0,1-1,.08l-2.81.05H453.42l-34-.29a9.7,9.7,0,0,0-4.52,1.09,8.41,8.41,0,0,0-3,3.3c-1.42,2.69-2.62,5.5-3.86,8.06l-6.51,13.75L397,307.1l-1.25,2.49a4.48,4.48,0,0,1-.49.84,3.75,3.75,0,0,1,.32-.92l1.1-2.56,4.19-9.36,6.33-13.83c1.23-2.6,2.37-5.33,3.84-8.15A9.33,9.33,0,0,1,414.4,272a10.59,10.59,0,0,1,5-1.21c13.35.09,25.35.37,34.08.55l10.32.29,2.8.13A3.83,3.83,0,0,1,467.53,271.82Z" style="fill:#263238"></path><path d="M437.32,280.46a1.6,1.6,0,0,1,.74,2.44,2.35,2.35,0,0,1-2.6,1,1.82,1.82,0,0,1-1.35-1.29,2.24,2.24,0,0,1,1.5-2.24A3.45,3.45,0,0,1,437.32,280.46Z" style="fill:#fff"></path><path d="M360.16,327l3.38-3.45s5-7.16,7-9.4,14.22-10.07,14.22-10.07,5.87-7.89,6.77-7.89,3.76.51,3,4.18A55.6,55.6,0,0,1,391.29,311l26,.57a5.51,5.51,0,0,1,4.24,2c.68.86,1,1.81-.25,2.41-2.71,1.34-13.76,4-13.76,4l4.93-1.26s1.06,4.68-2.06,6.9-3.33,2.64-3.33,2.64-.15,4.43-1.5,6.22-16,9.27-16,9.27-9.37,2.74-14.1,2.52-9.62,2.44-10.15,2.58S360.16,327,360.16,327Z" style="fill:#ffbf9d"></path><path d="M393.79,311.09c0,.25-3.28.38-7.31.81s-7.34.64-7.36.36,3.21-.83,7.27-1.27S393.81,310.84,393.79,311.09Z" style="fill:#ff9a6c"></path><path d="M390.32,322.54c-.08-.28,4.67-1.56,10.63-2.24,3-.38,5.67-.64,7.61-.86a15.43,15.43,0,0,1,3.18-.24,9.05,9.05,0,0,1-3.08.88c-1.93.38-4.63.75-7.59,1.12C395.12,321.88,390.38,322.75,390.32,322.54Z" style="fill:#ff9a6c"></path><path d="M390.32,331c0-.27,3.79-.38,8.37-1.17s8.2-1.91,8.3-1.66-3.46,1.77-8.14,2.56S390.31,331.22,390.32,331Z" style="fill:#ff9a6c"></path><path d="M391.89,340.44c-.25,0-.63-1-.84-2.26s-.19-2.37.06-2.42.63,1,.85,2.27S392.14,340.4,391.89,340.44Z" style="fill:#ff9a6c"></path><path d="M389.56,329.11c-.26,0-.4-.86-.84-1.74s-1-1.52-.86-1.74,1.13.2,1.69,1.34S389.81,329.16,389.56,329.11Z" style="fill:#ff9a6c"></path><path d="M386.59,317.77c-.26,0-.52-.51-.84-1.12s-.58-1.15-.4-1.34.83.15,1.23.93S386.84,317.75,386.59,317.77Z" style="fill:#ff9a6c"></path><path d="M380.46,246.14a9.61,9.61,0,0,1-1.49-.85l-4.1-2.45c-1.77-1-3.9-2.28-6.3-3.75a59.32,59.32,0,0,1-7.72-5.38l.68-.11a25.12,25.12,0,0,0-2.77,12.46v.06l0,1-.79-.66c-7.65-6.48-14.51-12.43-19.28-16.94-2.39-2.26-4.28-4.13-5.54-5.46a15.41,15.41,0,0,1-1.89-2.14,18.59,18.59,0,0,1,2.14,1.89l5.73,5.23c4.87,4.39,11.79,10.25,19.44,16.72l-.76.37v-.06a25.58,25.58,0,0,1,2.93-12.89l.25-.49.42.37a62.39,62.39,0,0,0,7.52,5.39l6.18,3.92c1.73,1.1,3.08,2,4,2.65A7.34,7.34,0,0,1,380.46,246.14Z" style="fill:#263238"></path><path d="M392.59,220.06a9.38,9.38,0,0,1,1,1.89c.56,1.25,1.33,3.09,2.21,5.37s1.89,5,2.82,8.15c.24.78.46,1.59.64,2.44a5,5,0,0,1,.12,1.46.67.67,0,0,1-.76.5.68.68,0,0,1-.39-.23l-.11-.13-.4-.52-3.37-4.32L390,229l.75-.06c-2.72,5.1-5.19,9.45-7.06,12.48-.94,1.52-1.72,2.71-2.29,3.51a5.18,5.18,0,0,1-1,1.17,5.92,5.92,0,0,1,.7-1.34l2-3.62c1.73-3.1,4.09-7.5,6.76-12.61l.32-.61.43.55,4.35,5.58,3.33,4.31.4.52.1.13-.16.17h0v0h0l-.23-.06a5.2,5.2,0,0,0-.11-1.09c-.17-.81-.37-1.6-.59-2.38-.88-3.09-1.83-5.85-2.62-8.16-.77-2.16-1.41-4-1.94-5.45A10.27,10.27,0,0,1,392.59,220.06Z" style="fill:#263238"></path><path d="M278.34,330.44a16.81,16.81,0,0,1,4.53-1.2,45.81,45.81,0,0,1,22.4,1.79,16.07,16.07,0,0,1,4.27,1.9,42.12,42.12,0,0,1-4.47-1.29A55.76,55.76,0,0,0,283,329.88,41,41,0,0,1,278.34,330.44Z" style="fill:#263238"></path><path d="M293.94,323.76c0-.22,4.3.35,8.89,2.88s7.39,5.76,7.21,5.9-3.19-2.69-7.65-5.1S293.87,324,293.94,323.76Z" style="fill:#263238"></path><path d="M315,297.35a2.38,2.38,0,0,1,0,.64c-.06.47-.13,1.07-.22,1.83-.23,1.67-.56,4-1,7-.89,6.12-2.16,14.83-3.71,25.45v0c0,.23,0,.48-.05.74l-.39-.38,26.49-2.48h-.07l23.46-5.93.47-.12.1.47c.44,2.13.92,4.4,1.41,6.7,1.46,7,2.88,13.75,4.23,20.2l.08.37-.35.14A414.59,414.59,0,0,1,316,368.87c-6.3,1.7-11.38,2.91-14.88,3.69l-4,.87-1.05.2a1.19,1.19,0,0,1-.36.05s.12-.06.35-.12l1-.28,4-1c3.47-.88,8.52-2.17,14.8-3.94a445.91,445.91,0,0,0,49.31-17.19l-.27.51-4.26-20.21c-.48-2.29-.95-4.57-1.4-6.7l.56.35L336.29,331h-.07l-26.5,2.34-.42,0,0-.42c0-.26,0-.51.05-.73v0h0c1.68-10.61,3.06-19.3,4-25.41.49-3,.88-5.3,1.16-7,.13-.75.24-1.35.33-1.82A4.65,4.65,0,0,1,315,297.35Z" style="fill:#263238"></path><path d="M316.81,270.93a40,40,0,0,1-1.14-4.49,52.18,52.18,0,0,0-9.92-19.72c-1.79-2.23-3-3.5-2.92-3.61a16.49,16.49,0,0,1,3.42,3.2,43.08,43.08,0,0,1,10.05,20A16,16,0,0,1,316.81,270.93Z" style="fill:#263238"></path><g style="opacity:0.30000000000000004"><path d="M317.71,280.05c-2.13,11.5-3.65,24.48-5.5,36,.44.54.2,2.26.64,2.8,2.14-5.91,5-13,6.17-19.21S319.37,286.11,317.71,280.05Z"></path></g><g style="opacity:0.30000000000000004"><path d="M363.23,243.19l15.89,2.18a114.37,114.37,0,0,1-18-12c-2,4.64-3.1,6.33-2.77,13-7.69-6.41-15-13.73-22.69-20.14a133.89,133.89,0,0,0,28.79,30.42A50.32,50.32,0,0,1,363.23,243.19Z"></path></g><path d="M355.56,105.63a8.53,8.53,0,0,1,8.69-4.6,11.72,11.72,0,0,1,14.34-.23,10.65,10.65,0,0,1,10.21-.54,10.47,10.47,0,0,1,5.71,8.4,8.91,8.91,0,0,1,9.2,4.21,8.75,8.75,0,0,1-1.14,10A8.25,8.25,0,0,1,399.63,139l-42.18-23.79A8.39,8.39,0,0,1,355.56,105.63Z" style="fill:#263238"></path><path d="M405,184.7c-.2-9.07-2.16-27.72-4.13-44.57a35.2,35.2,0,0,0-36.3-31l-1.82.06c-19.66,1.82-29.09,19.4-26.71,38.83l5.54,61.29,38,34.3,8.29-24.24-1.32-12.35S405.44,203.49,405,184.7Z" style="fill:#ffbf9d"></path><path d="M386.76,207a46.27,46.27,0,0,1-25.06-6.34s6.31,13.31,25.14,11Z" style="fill:#ff9a6c"></path><path d="M396,156.45a2.69,2.69,0,0,1-2.52,2.79,2.58,2.58,0,0,1-2.87-2.32,2.71,2.71,0,0,1,2.51-2.8A2.59,2.59,0,0,1,396,156.45Z" style="fill:#263238"></path><path d="M397.14,149.45c-.33.36-2.43-1.07-5.34-1s-5,1.63-5.32,1.28c-.16-.15.16-.79,1.07-1.49a7.35,7.35,0,0,1,4.24-1.46,7.1,7.1,0,0,1,4.26,1.2C397,148.67,397.3,149.29,397.14,149.45Z" style="fill:#263238"></path><path d="M369.71,157.86a2.71,2.71,0,0,1-2.52,2.8,2.59,2.59,0,0,1-2.87-2.33,2.69,2.69,0,0,1,2.51-2.79A2.59,2.59,0,0,1,369.71,157.86Z" style="fill:#263238"></path><path d="M368.55,151c-.32.36-2.42-1.07-5.33-1s-5,1.62-5.32,1.28c-.16-.15.15-.8,1.06-1.5a7.53,7.53,0,0,1,4.25-1.46,7.17,7.17,0,0,1,4.26,1.21C368.38,150.2,368.71,150.82,368.55,151Z" style="fill:#263238"></path><path d="M379.86,172c0-.16,1.78-.53,4.7-1,.74-.11,1.44-.28,1.55-.78a3.79,3.79,0,0,0-.58-2.17l-2.39-5.54c-3.33-7.88-5.77-14.37-5.45-14.5s3.28,6.15,6.61,14c.81,1.94,1.58,3.79,2.31,5.57a4.24,4.24,0,0,1,.48,2.88,1.85,1.85,0,0,1-1.18,1.11,4.52,4.52,0,0,1-1.26.22C381.71,172.1,379.88,172.18,379.86,172Z" style="fill:#263238"></path><path d="M371.37,174.31c.47-.05.59,3.08,3.37,5.21s6.13,1.67,6.17,2.11c0,.2-.73.63-2.15.72a7.89,7.89,0,0,1-5.14-1.58,6.76,6.76,0,0,1-2.62-4.38C370.83,175.08,371.15,174.3,371.37,174.31Z" style="fill:#263238"></path><path d="M368.91,139.65c-.26.79-3.18.52-6.58,1s-6.13,1.55-6.61.86c-.21-.33.24-1.08,1.33-1.88a11.6,11.6,0,0,1,10-1.45C368.37,138.67,369,139.27,368.91,139.65Z" style="fill:#263238"></path><path d="M395.77,141.14c-.49.67-2.51.06-4.93.11s-4.43.6-4.93-.07c-.21-.33.08-1,1-1.65a6.82,6.82,0,0,1,4-1.21,6.92,6.92,0,0,1,4,1.18C395.68,140.15,396,140.81,395.77,141.14Z" style="fill:#263238"></path><path d="M398.76,131.58s-5.41-11.59-11.22-14.14c-7-3.08-9.76,4.56-16.42,3s-13.38-4.56-19.94.73c-7.19,5.79-3.59,9.55-3.76,17.9-.66,33.84-6.54,43.61-8.87,27.76-.26-1.74-5.18-3-6.16-10.3-1.28-9.51-2.05-21.1-.14-28,1.61-5.77,4.75-9.83,10.49-14.39,9.06-7.19,21.82-7.77,30.52-7.21S399,116.83,398.76,131.58Z" style="fill:#263238"></path><path d="M339.74,166.24a5.12,5.12,0,0,0-5.72-4.72c-3.52.45-7.38,2.57-6.9,9.8.87,12.83,13.67,9.32,13.67,9S340.15,171.6,339.74,166.24Z" style="fill:#ffbf9d"></path><path d="M337.65,175.63c-.06,0-.21.18-.58.37a2.26,2.26,0,0,1-1.68.15c-1.4-.41-2.7-2.48-2.92-4.79a7.3,7.3,0,0,1,.42-3.24,2.61,2.61,0,0,1,1.58-1.83,1.16,1.16,0,0,1,1.37.53c.19.35.13.61.2.62s.26-.23.12-.75a1.4,1.4,0,0,0-.56-.77,1.73,1.73,0,0,0-1.27-.25,3.19,3.19,0,0,0-2.22,2.15,7.66,7.66,0,0,0-.54,3.62c.26,2.58,1.76,4.91,3.66,5.32a2.41,2.41,0,0,0,2-.47C337.65,176,337.7,175.65,337.65,175.63Z" style="fill:#ff9a6c"></path><path d="M339.12,141.35c1.72,1.08,3.54,2.2,5.57,2.33s4.31-1.11,4.58-3.11c.12-.9-.13-1.93.43-2.64s2-.64,3.08-.56a8.26,8.26,0,0,0,8.37-6.17c1,1.39,3.25,1.25,4.67.27s2.3-2.53,3.4-3.86,2.64-2.54,4.36-2.35c1,.1,1.88.63,2.84.51,1.69-.21,2.45-2.21,2.65-3.89s.33-3.64,1.74-4.6,3.05-.46,4.62-.29,3.58-.26,3.93-1.79a3,3,0,0,0-.66-2.31,8.44,8.44,0,0,0-10-2.8,11.41,11.41,0,0,0-20.95-1.47,11.84,11.84,0,0,0-10.41-2.32,11.72,11.72,0,0,0-7.88,7.13,8.62,8.62,0,0,0-8.63,3.24,8.42,8.42,0,0,0-.37,9.14c-2.28,1.4-4.19,3.76-4.15,6.42s2.75,5.22,5.31,4.43a4.75,4.75,0,0,0,2,6,4.82,4.82,0,0,0,6.13-1.67" style="fill:#263238"></path><path d="M330.66,136.67a3.06,3.06,0,0,0,.89,2.44,4.18,4.18,0,0,0,2.65,1.44,4.52,4.52,0,0,0,3.65-1.19l-.55-.06a13,13,0,0,0,2.7,3.11,7.52,7.52,0,0,0,2.41,1.37,5,5,0,0,0,2.61.15,5.11,5.11,0,0,0,3.67-2.25,7.51,7.51,0,0,0,.95-2.71c.11-.66.11-1,.06-1a3.63,3.63,0,0,0-.34,1,8.86,8.86,0,0,1-1.11,2.48c-1.17,1.88-5.13,3-7.78.45a12.88,12.88,0,0,1-2.56-2.92l-.25-.37-.31.31a3.92,3.92,0,0,1-3.08,1.09,3.83,3.83,0,0,1-2.39-1.14A6.16,6.16,0,0,1,330.66,136.67Z" style="fill:#455a64"></path><path d="M367,176.33c.22,0,.25-1.36,1.31-2.52s2.37-1.4,2.35-1.6-.37-.19-.95-.07a3.81,3.81,0,0,0-2,1.18,3.66,3.66,0,0,0-.93,2.08C366.75,176,366.89,176.34,367,176.33Z" style="fill:#ff9a6c"></path><path d="M365.71,172.82c.19.1.64-.36,1.32-.69s1.31-.43,1.34-.64-.79-.47-1.68,0S365.53,172.74,365.71,172.82Z" style="fill:#ff9a6c"></path><path d="M389.41,100.59c.06-.13,1.4.71,2.44,2.84a10.83,10.83,0,0,1,1.16,4,7.21,7.21,0,0,1-1.34,4.92,10.4,10.4,0,0,1-4,3.11,30,30,0,0,1-3.82,1.44,17.21,17.21,0,0,1-3.62.92,14.09,14.09,0,0,1,3.41-1.53c1.06-.42,2.33-.91,3.66-1.58a10.42,10.42,0,0,0,3.67-2.89,6.6,6.6,0,0,0,1.23-4.34,11.35,11.35,0,0,0-.9-3.74A15.57,15.57,0,0,0,389.41,100.59Z" style="fill:#e0e0e0"></path><path d="M397.62,109c.11,0,.19.81-.16,2.06a9.36,9.36,0,0,1-2.68,4.25,9.57,9.57,0,0,1-4.48,2.32c-1.28.24-2.09.1-2.09,0s.77-.24,1.92-.63a11.15,11.15,0,0,0,6.72-6.15C397.33,109.77,397.48,109,397.62,109Z" style="fill:#e0e0e0"></path><path d="M493.27,277.08c-.14,0-1.29-5-2.58-11.22s-2.2-11.31-2.06-11.34,1.29,5,2.57,11.23S493.41,277.06,493.27,277.08Z" style="fill:#263238"></path></g></svg>
