<svg xmlns="http://www.w3.org/2000/svg" viewBox="0 0 500 500"><g id="freepik--Character--inject-27"><g id="freepik--character--inject-27"><g id="freepik--Bottom--inject-27"><g id="freepik--bottom--inject-27"><polygon points="301.01 391.61 305.41 389.44 301.01 388.33 301.01 391.61" style="fill:#263238"></polygon><path d="M345.19,398.82s-52.79-22-53.38-18.58a4.82,4.82,0,0,0,.06,2.05l-.15-.19,1.08,6.34a15.92,15.92,0,0,0,8.21,3.17v-3.28a26.77,26.77,0,0,1,4.66,2.29c3.4,2.09,5.62,5.81,9.26,10.11,2.65,3.13,7.31,4.54,14.19,5.37,7.4.9,13.89-.56,15.69-2.5C346.25,402.05,345.47,399.26,345.19,398.82Z" style="fill:#263238"></path><path d="M343.73,397.67c-.52-.5-2.42-2.46-5-4.58-2.25-1.86-4.87-4.21-7.67-6.1a29,29,0,0,1-3.81-2.93c-.93-.93-1.82-1.9-2.65-2.91a54.67,54.67,0,0,1-6.5-10.24c-.85-1.72-2.41-5.49-2.1-12.54.47-10.68,1.31-14.54,1.23-21.47l-24.94,3.66c.79,3.83,1.72,12.4,2.17,16.76.7,6.64,1.72,7.25-.86,13.92-.76,2-1.91,3.86-2,5.95-.11,3.4,2.71,6.29,5.84,7.91,2.59,1.34,5.55,1.88,8.07,3.31a25.64,25.64,0,0,1,6.63,6.08c1.8,2.15,3.26,4.7,5.76,6.19,2.77,1.65,5.39,2.14,8.58,2.71a47.87,47.87,0,0,0,11.48.39C343.44,403.28,347.46,401.32,343.73,397.67Z" style="fill:#ffbda7"></path><path d="M340.66,394c-2.29-1.79-5.53-4.37-9.45-7.26a10.21,10.21,0,0,0-8.12.84c-7.72,4.06-8.95,9.67-8.95,9.67a11,11,0,0,0,6.44,5.26c9.06,3.65,25.14,2.21,25.23-1.79C345.87,398.18,343.44,396.18,340.66,394Zm-46.57-24.21s-.5,1.32-1.83,3.91-1.55,5.15.21,7.69c2.31,3.37,5.11,4.37,8,5.05C302.81,378.83,297.25,371.38,294.09,369.79Z" style="fill:#37474f"></path><path d="M252.77,388.64c0,2.6-.69,10.29-.47,16.09.2,5.26,1.25,13.49-.37,19.63s-7.83,12.87-16,6.95c-5.06-3.66-7-8-7.57-15.6-.37-5.27,2.2-12.51,4.42-18.93,2.58-7.51,3.6-11.52,3.6-11.52Z" style="fill:#263238"></path><path d="M236.61,349.53c-.87,12.27-.21,18.87-.3,26.74-.17,3.66-.39,8.78-1.39,12.63-1.3,5-2.81,11.93-3.72,15.17-1.28,4.52-2.24,7.37-.56,12.49a5.9,5.9,0,0,0,.56,1.16c2.42,4.25,8.74,7.53,10.8,7.06a3.78,3.78,0,0,0,3.57,1.15,5.79,5.79,0,0,0,.68-.13,6.2,6.2,0,0,0,.69-.23,6.39,6.39,0,0,0,3.49-3.8,10.15,10.15,0,0,0,.35-1.1,37.94,37.94,0,0,0,1.1-12.36c0-3,.15-7.3.54-11.9s2.91-18,4.56-25c1.47-6.21,2.2-11.47,4.14-17.89Z" style="fill:#ffbda7"></path><path d="M229.82,410c5.08-1.85,20.16-1.6,22.35,4.64-.08,5.84-.59,9.54-4.93,14.55-5.78,6.65-12.94-.63-15.65-5.23S229.06,413.1,229.82,410Z" style="fill:#37474f"></path><path d="M259.47,176.38c-6.71,11-17.08,26.56-17.91,51.48-1.12,33.22-2.87,57.14-3.12,61.15s-1.88,10.51-4.57,30.19,1.38,57.7,1.38,57.7,2.3,4.48,10.16,5.36c7.25.81,10.65-2.45,10.65-2.45s11.48-52.66,14.58-64.48,13.64-63.48,13.64-63.48l3.85,31.82s-2.52,10.83-.79,28.19,7.45,50.85,7.45,50.85,3.29,3.33,11,3c7.06-.27,10.62-4,10.62-4s6.75-66.09,7.31-85.7,0-68.58-5.64-97.78Z" style="fill:#37474f"></path><path d="M290.59,220.46l-6.31,31.39,3.85,31.82.14-30.2,6.26-29.91c5-1,17.75-9.29,18.84-17.26C306.47,216.65,290.59,220.46,290.59,220.46Zm-36.93,118q-3.09,15.29-5.77,30.65,3.93-15.13,7.43-30.32c2.38-10.13,4.61-20.25,6.84-30.45s4.8-33.35,6-43.68,2.13-20.66,2.93-31c-1.64,10.27-3.12,20.55-4.62,30.82s-4.33,33.34-6.44,43.48S255.68,328.24,253.66,338.43Zm60.6-73.59c.09,4.5.24,9,0,13.48s-.64,9-1,13.48l-1.1,13.51q-1.09,13.51-1.88,27.07,2-13.44,3.58-26.92c1-9,2-18,2.58-27,.23-9.14-.33-18.15-.92-27.19s-1.49-18-2.69-27l1,27.09C314,255.82,314.18,260.33,314.26,264.84Z" style="fill:#263238"></path></g></g><g id="freepik--Top--inject-27"><path d="M263.6,57.39c-8.14,2.63-10,10.57-10.31,24.22-.13,5.29,0,10-4.5,13.54-2.42,1.9-5.26,3.29-7.33,5.56-3.42,3.78-3.79,10.33-.05,13.79a8.39,8.39,0,0,0-5.24,6.85,12.39,12.39,0,0,0,2.38,8.55C242.13,135,249.2,137,255.24,136c1.43,4.06,5.71,6.68,10,7s8.54-1.34,12.12-3.73c2.22,4.32,7.88,5.77,12.34,5.12a16.26,16.26,0,0,0,11.34-7.2,1.69,1.69,0,0,1,.62-.7,1.79,1.79,0,0,1,.69-.11c3.07,0,6,0,8.76-1.41a15.12,15.12,0,0,0,6.3-5.11,11.08,11.08,0,0,0,1.77-5.34,8.5,8.5,0,0,0-.74-4.65c2.62-2,2.94-8,2.14-11.27s-2.88-6-5.15-8.4-4.77-4.65-6.69-7.35a11.83,11.83,0,0,1-2.18-7.76c0-1.63-.7-4.61.44-6,0,0,5-6.07,4.79-12.6A20.45,20.45,0,0,0,296,47C286,44.35,267.79,45.18,263.6,57.39Z" style="fill:#263238"></path><g id="freepik--Arm--inject-27"><path d="M365.21,138.13a35.25,35.25,0,0,0,4.17-6.77c2.76-6.18,5-7.37,10.36-11.29l2.77-2a12.93,12.93,0,0,0,1.31-1c.38-.35.72-.64,1.29-.3a1.93,1.93,0,0,1,.76,1.12,5.53,5.53,0,0,1-.85,4.41,27,27,0,0,1-3,3.54c-.78.88.56,1,1.2,1,3.15-.18,7.25-3,9.81-4.8,1.67-1.15,3.13-2.61,5-3.51a6.25,6.25,0,0,1,3.67-.67c.84.14,1.57.55,1.3,1.59a4.38,4.38,0,0,1-1.12,1.63c-.91,1-1.71,2-1.63,3.42a11,11,0,0,1,.11,2.74c-.24,1.14-1.11,2-1.47,3.16.51.4.52,1.46-.23,2.5a29.43,29.43,0,0,1-6.73,7.07,28.62,28.62,0,0,1-9.2,4.5,15.86,15.86,0,0,0-7.54,4.85c-2.92,3.33-5.68,7.31-11.92,15.25-8.82,11.21-11.82,16.14-17.7,17.92-4.36,1.32-7.82-1.8-16.58-9.29a249.88,249.88,0,0,1-25.12-25l7-34.63c5.43,2.83,9.65,9.82,15.78,19.43,11.37,17.85,15.8,23.83,15.8,23.83S363,140.88,365.21,138.13Z" style="fill:#ffbda7"></path><path d="M380.57,128.09c0,7.61-3.76,10.85-6.08,12.95,0,0,4.25-1.3,5.86-4.75A9.66,9.66,0,0,0,380.57,128.09Z" style="fill:#f0997a"></path><path d="M353.51,147.59l3.7-3.12a25.16,25.16,0,0,0,3.32,9.15,16.79,16.79,0,0,0,7,6.35l-3.44,4.26a20.23,20.23,0,0,1-7.25-5.45C354,155.17,353.51,147.59,353.51,147.59Z" style="fill:#f0f0f0"></path><path d="M302.35,111.08c14.44,2,18.38,10.39,22.27,16.5,5.43,8.51,17.84,27.28,17.84,27.28l12.45-8.79a17.25,17.25,0,0,0,3,9.18,23.5,23.5,0,0,0,7.84,7.16S357,174.07,352,179.3s-8,6.74-16.65.69c-10.7-7.49-33.3-32-33.3-32Z" style="fill:#3B5992"></path><path d="M342.46,154.86c-2.5,2.08-5,7.59-5.67,11-.24-3.75,1.16-9.54,4.65-12.57Z" style="opacity:0.15"></path></g><path id="freepik--Chest--inject-27" d="M252.06,189.26c.73-5.27,4.4-6,2.61-18.64-.88-6.24-4-22.37-4-22.37s10.72-8.27,7.28-32.39l11-5.14,6.82-1.72,17.58.73,9,2.48c3.1,2.66,8.76,6.85,13.32,13.29,6.58,9.3,7.76,19.52,1,27.17-.07,1.48.2,24.47,1.93,30.07.69,2.22,1.63,5.25.18,8.23C312.37,201.59,274,212.41,252.06,189.26Z" style="fill:#fafafa"></path><path d="M293.35,109.73l9,1.35c8.65,6.54,18.94,18.33,19.52,27.4a24.48,24.48,0,0,1-4,15.21s-.12,18.45,2,28.2,4.44,35.82,4.44,35.82.19,1.63-7,3.66c-2.22-12.5-7.71-58.36-7.4-69.37S310.33,123.61,293.35,109.73Z" style="fill:#3B5992"></path><path d="M293.35,109.73l9,1.35c8.65,6.54,18.94,18.33,19.52,27.4a24.48,24.48,0,0,1-4,15.21s-.12,18.45,2,28.2,4.44,35.82,4.44,35.82.19,1.63-7,3.66c-2.22-12.5-7.71-58.36-7.4-69.37S310.33,123.61,293.35,109.73Z" style="opacity:0.30000000000000004"></path><path d="M311.17,157.13c.72-2.92,1.5-5.83,2.3-8.73s1.55-5.8,2.27-8.7a34.25,34.25,0,0,0,.83-4.37c.22-1.38-.76-2.53-1.73-3.61a40.75,40.75,0,0,0-6.92-5.58l-.23-.15.05-.27a14.47,14.47,0,0,0,0-4.78,12.41,12.41,0,0,0-1.65-4.49,14.28,14.28,0,0,0-3.39-3.46,22,22,0,0,0-4.25-2.49,20.26,20.26,0,0,1,4.44,2.22,13.49,13.49,0,0,1,3.65,3.42,13.09,13.09,0,0,1,1.92,4.67,14.38,14.38,0,0,1,.09,5.07l-.18-.42a38.4,38.4,0,0,1,7.14,5.66,9.57,9.57,0,0,1,1.42,1.88,4,4,0,0,1,.26.55,2,2,0,0,1,.19.61,3.74,3.74,0,0,1,0,1.24,34.14,34.14,0,0,1-.89,4.48c-.74,2.93-1.66,5.8-2.55,8.67S312.1,154.27,311.17,157.13Z" style="opacity:0.2"></path><path d="M269,110.72s3.7,4.24,8.71,15.69,9.85,21.88,9.76,32.49-3.55,65.49-3.55,65.49-15.22,2.3-29-3.25L256,199.88l-5.21,20.26s-6.6-2.37-9-4.57c3.59-22.1,11.63-32.58,12-40.74.28-5.6-4.48-21.14-5.39-35.14a107.22,107.22,0,0,1,1.67-24.52Z" style="fill:#3B5992"></path><path d="M269,110.72s3.7,4.24,8.71,15.69,9.85,21.88,9.76,32.49-3.55,65.49-3.55,65.49-15.22,2.3-29-3.25L256,199.88l-5.21,20.26s-6.6-2.37-9-4.57c3.59-22.1,11.63-32.58,12-40.74.28-5.6-4.48-21.14-5.39-35.14a107.22,107.22,0,0,1,1.67-24.52Z" style="opacity:0.30000000000000004"></path><path d="M285.42,162.06a24.43,24.43,0,0,0-4.19-7.33,84.5,84.5,0,0,0-5.49-6.47c-.94-1.06-1.91-2.1-2.89-3.13l-1.46-1.56c-.25-.27-.48-.51-.74-.82a1.46,1.46,0,0,1-.19-.25,2.87,2.87,0,0,1-.18-.4,3,3,0,0,1-.08-.71,12.84,12.84,0,0,1,1.49-4.24c.67-1.28,1.4-2.51,2.18-3.73l.07.71-4.35-4.4-2.16-2.21-.54-.56-.26-.28a2.17,2.17,0,0,1-.37-.45,2.2,2.2,0,0,1-.11-1,7.4,7.4,0,0,1,.08-.81,47.29,47.29,0,0,1,1.48-6.08c.61-2,1.24-4,2-5.91-.5,2-1,4-1.46,6a59,59,0,0,0-1.15,6,3.92,3.92,0,0,0,0,1.3c-.07-.11.06.06.15.13l.28.27.57.54L270.3,129l4.45,4.37.32.31-.25.4c-.73,1.18-1.44,2.41-2.07,3.66a12.49,12.49,0,0,0-1.4,3.75,2.92,2.92,0,0,0,0,.33.16.16,0,0,1,0,.09s.09.12.13.18c.19.24.45.51.68.77l1.44,1.57c1,1.06,1.92,2.11,2.85,3.19,1.85,2.18,3.63,4.42,5.26,6.77A35.2,35.2,0,0,1,284,158,15.26,15.26,0,0,1,285.42,162.06Z" style="opacity:0.2"></path><g id="freepik--arm--inject-27"><path d="M169.21,130.48c-2.07-1.35-3.79-2.69-6.36-4.38s-4.67-2.38-5.72-1.24.35,2.92,3.53,5.5c5.07,4.13,8.71,7.11,8.47,7.68-2.9.17-3.69.32-3.79,2.51-.07,1.49,1.75,2.47,1.75,2.47a1.94,1.94,0,0,0-1.72,2,2.74,2.74,0,0,0,1.58,2.42s-1.25.28-.92,1.94a4.58,4.58,0,0,0,2.24,3.1l.26-1.31a3,3,0,0,0,1.31-.05c.73-.2,2.2.27,3.41.63s2.59.93,3.47.14a1.64,1.64,0,0,0,.25-2.41,5.06,5.06,0,0,0-1.31-.78s1.84.46,2.5-1-.58-2.28-1.34-2.85c.83-.56,1.58-1.23,1.25-2.06s-3-2.55-3-2.55l1-2.44s1-2.07-.41-3.05C173.06,133,171.53,132,169.21,130.48Z" style="fill:#ffbda7"></path><path d="M233.33,167.36a11.41,11.41,0,0,0-1.71-1.83C225.75,160.36,218,158,211,154.68c-4.53-2.16-9.14-4.61-13.65-6.86-5.41-2.71-6.24-3-8.31-6.48-1.12-1.86-2.25-3.64-3.52-5.41a10.6,10.6,0,0,0-2-2.29,5.88,5.88,0,0,0-3.43-1.31,13.76,13.76,0,0,0-2.87.07,7.5,7.5,0,0,0-2.31.43,7.8,7.8,0,0,0-1.66,1.12,6.25,6.25,0,0,0-1.64,2.06l.29,5.46a2.22,2.22,0,0,0,2.17.17,2.79,2.79,0,0,0,1.15-1.32s2.53,1.52,2.68,2.39,0,1.37-1.32,1.75c.82.73,2.1,1.8,1.57,2.95s-2.49,1.33-2.49,1.33,2.28,1.8,1.81,2.61-9.46-2.28-9.46-2.28l.26,3.45c2.31,1,10,4.54,14.6,5.36,1.63.29,4.68,1.91,8.85,5,4.75,3.48,8.68,7.77,13.2,11.44A41.86,41.86,0,0,0,219.45,182a10.62,10.62,0,0,0,3.57.56,8.44,8.44,0,0,0,3.6-1.16c2.49-1.4,5.24-4.92,6.95-7.18C235.72,171.32,235.25,170.07,233.33,167.36Z" style="fill:#ffbda7"></path><path d="M175.82,137.58a14.39,14.39,0,0,1-1.27,3.19,1.67,1.67,0,0,1-2.14.68c-.47-.24-.52-5.62-.52-5.62l1.36-1.88c-1.18,1.05-1.45,1.28-1.69,1.81-.33.73,0,4.67.1,5.61s2.48,1.53,3.47-.57c0-.08.06-.14.09-.21l.07,0a5.15,5.15,0,0,1,2,1.74c.3.45.65,1,.22,1.47a1.46,1.46,0,0,1-.76.39,2.26,2.26,0,0,1-.68.08,1.62,1.62,0,0,0-.62.07l0,0s0,.09.06.11c.27.18.56.33.84.5.84.5,1.94,1.56,1.3,2.57a1.74,1.74,0,0,1-1.42.85c-.43,0-.88,0-1.32,0-.07,0-.17.07-.14.14s0,0,.07.06a7,7,0,0,1,1.88,1.18,1.58,1.58,0,0,1,.54,1.27c-.11.55-.9,1-1.41,1.08l-.25.06s0,.05,0,.06,0,0,.08,0a2.92,2.92,0,0,0,.51,0,1.67,1.67,0,0,0,1.59-1.56,1.9,1.9,0,0,0-1-1.84,2.1,2.1,0,0,0,1.83-1.13c.9-1.41-.06-2.3-1.2-3a1.82,1.82,0,0,0,.82-.58,13,13,0,0,0,3.35,5.74,20.84,20.84,0,0,1-2.66-7,18.27,18.27,0,0,1,.05-5.86S176.65,138,175.82,137.58Zm1.67,2.85a1,1,0,0,1-.18.06,1.79,1.79,0,0,1-.69,0,9.78,9.78,0,0,0-1.22-.26c.75-1.62.93-2.15.93-2.15a1.89,1.89,0,0,0,1.13-.21A17.52,17.52,0,0,0,177.49,140.43Z" style="fill:#f0997a"></path><path d="M204.73,151.3l-6.11-3.23s-2.71,1.05-5.81,6.66a17.39,17.39,0,0,0-2.35,7.65l6.75,5.49Z" style="fill:#f0f0f0"></path><path d="M217.26,156.48c4.81-7.54,13.12-20.47,18.51-28,6.9-9.66,7.86-12,17.51-14.11,7.13,19,2,32-.68,35.54S240.43,167.32,236,173.15s-8.12,9.72-12.18,10.32-8.56-1.46-15-5.68c-5-3.3-15.11-12.56-15.11-12.56a22.43,22.43,0,0,1,4.46-10.88,16.18,16.18,0,0,1,4.55-4.38Z" style="fill:#3B5992"></path><path d="M217.26,156.48c2,.93,7.93,5.23,8.91,8.6.23-3.66-4.89-8.49-7.53-10.76Z" style="opacity:0.15"></path></g><g id="freepik--Head--inject-27"><path d="M260.8,80.28c1.77-2.06,5.39-3,7.2-.19,1.12,1.72,1.44,4.61,3.11,4.16,1-.27,1.36-1.49,1-3.7,0,.12,1.32-.69,1.42-.77,1.25-1.09,1-2.72,1.37-4.16.45-1.6,1.73-2.81,2.49-4.25,1.2-2.26.73-5.06.26-7.47-.21-1-.35-2.28.41-3a2.91,2.91,0,0,1,2.16-.62,36.52,36.52,0,0,1,7.14,1.34,12,12,0,0,0,7.16-.15c1-.4,1.82-1,2.75-1.46a4.64,4.64,0,0,1,3-.59,5,5,0,0,1,2.35,1.39c3.13,3,4.14,7.64,4.93,11.75a55.15,55.15,0,0,1,.49,9.35c.26,13.35-2.1,16.64-4.88,19-2.39,2-6.12,3-10.5,3l.06,7.59s6.36,11.92,3.3,18.87c0,0-10.15-4.24-16.32-9.35-7.58-6.27-8.85-10.1-8.85-10.1l-.06-20.23s-3.23,4.64-7.89,1.1C259,88.83,258.17,83.34,260.8,80.28Z" style="fill:#ffbda7"></path><path d="M292.61,103.88c-8.37.05-16.52-3.52-19.54-11.07,0,0,.3,5,3.46,8.09,6.32,6.13,16.1,5.62,16.1,5.62Z" style="fill:#f0997a"></path><path d="M283.37,76.9a2.06,2.06,0,1,0,2.29-1.8A2.07,2.07,0,0,0,283.37,76.9Z" style="fill:#263238"></path><path d="M299.35,77.58A2.06,2.06,0,1,0,300.7,75,2.06,2.06,0,0,0,299.35,77.58Z" style="fill:#263238"></path><path d="M287,68.35,282,70.28a2.78,2.78,0,0,1,1.55-3.52A2.59,2.59,0,0,1,287,68.35Z" style="fill:#263238"></path><path d="M298.82,68.72l5.22.89a2.79,2.79,0,0,0-2.24-3.13A2.58,2.58,0,0,0,298.82,68.72Z" style="fill:#263238"></path><path d="M296.12,90.47l-7.37-2.1a4,4,0,0,0,2.72,4.85A3.74,3.74,0,0,0,296.12,90.47Z" style="fill:#b16668"></path><path d="M293.79,93.12a4.46,4.46,0,0,0-4.57-3.37c-.19,0-.37.06-.56.09a4,4,0,0,0,2.81,3.38A3.66,3.66,0,0,0,293.79,93.12Z" style="fill:#f0997a"></path><path d="M279.55,72.69l-13,6.08a3.84,3.84,0,0,1,1.72,1.82l11.94-5.7Z" style="fill:#263238"></path><path d="M308.79,71,308,70.9c-2.67-.19-6.15-.14-8.24.58-2.63.92-3.55,1.87-5,1.94s-2.56-.83-5.38-1.54c-2.25-.56-6-.34-8.87.06l-.89.14a1.53,1.53,0,0,0-1,1.54,3.15,3.15,0,0,0,.81,1.72,2,2,0,0,1,.27.7c.28,1.21.42,3.57,1,4.87a5.7,5.7,0,0,0,1.11,1.75,4.8,4.8,0,0,0,.59.51l.33.22a4.69,4.69,0,0,0,1,.46l.18.05.26.08.29.06a7.64,7.64,0,0,0,.9.11l.38,0h.48a6.45,6.45,0,0,0,6.21-4c.92-1.9.68-4.51,2.36-4.57h.17l.14,0c1.25.25,1.12,2.66,1.92,4.37a6.88,6.88,0,0,0,1.23,1.87l.29.29.16.13.16.13.15.11.16.1.13.08.09.06a5.24,5.24,0,0,0,1.49.55l.13,0a7.41,7.41,0,0,0,1.81.12,5.27,5.27,0,0,0,5.13-3.66,31.29,31.29,0,0,0,.89-4.93,1.65,1.65,0,0,1,.29-.64,3.31,3.31,0,0,0,.71-1.81A1.46,1.46,0,0,0,308.79,71Zm-17.4,7.52a5.94,5.94,0,0,1-1.29,2.66h0a5.34,5.34,0,0,1-4,1.66A4.24,4.24,0,0,1,282.17,81l-.12-.18-.11-.18-.09-.17-.07-.16a.67.67,0,0,1-.06-.12l-.05-.11a1.46,1.46,0,0,1-.07-.19h0a3.86,3.86,0,0,1-.19-.54h0l-.09-.33c-.05-.18-.08-.36-.12-.52s0-.07,0-.1a.29.29,0,0,1,0-.09c-.26-1.29-.54-3.81.1-4.4s2.32-1.24,5-1.08l.29,0c.41,0,.83.09,1.24.17l.48.1a9.94,9.94,0,0,1,1.2.36l.37.14.4.18.08,0,.15.08a2.33,2.33,0,0,1,.81.64C291.86,75.35,291.7,77,291.39,78.49Zm15.94-1.17c-.18,1-.58,3.24-2.48,4.28a4.59,4.59,0,0,1-2,.54,4.35,4.35,0,0,1-4.15-1.8,0,0,0,0,0,0,0l-.08-.12a1,1,0,0,1-.08-.14.16.16,0,0,1,0-.07,1.28,1.28,0,0,1-.11-.2,2.56,2.56,0,0,1-.11-.24l-.06-.11a.64.64,0,0,0,0-.07.3.3,0,0,1,0-.1l0-.07a6.82,6.82,0,0,1-.27-1c-.3-1.43-.46-3.09,0-3.9s2.49-1.74,4.4-2c.45-.08.86-.12,1.24-.15h1.1c.12,0,.23,0,.34,0a5.43,5.43,0,0,1,.62.09l.15,0h0l.1,0,.15,0,.18,0,.3.11,0,0a2.58,2.58,0,0,1,.68.41C307.81,73.49,307.55,76,307.33,77.32Z" style="fill:#37474f"></path><path d="M292.85,78.72l2.41,8,6.52-3.16c-.26-.38-6.31-7.46-6.79-7.94a1.24,1.24,0,0,0-1.28.47A7.51,7.51,0,0,0,292.85,78.72Z" style="fill:#f0997a"></path></g></g></g></g></svg>